<?xml version="1.0" encoding="UTF-8"?>
<svg width="466px" height="173px" viewBox="0 0 466 173" version="1.1" xmlns="http://www.w3.org/2000/svg" xmlns:xlink="http://www.w3.org/1999/xlink">
    <!-- Generator: Sketch 63.1 (92452) - https://sketch.com -->
    <title>logo</title>
    <desc>Created with Sketch.</desc>
    <defs>
        <polygon id="path-1" points="154.542 166.94 0.06 166.94 0.06 0.139 154.542 0.139 154.542 166.94"></polygon>
    </defs>
    <g id="logo" stroke="none" stroke-width="1" fill="none" fill-rule="evenodd">
        <g>
            <g id="Group-3" transform="translate(0.000000, 6.000000)">
                <mask id="mask-2" fill="white">
                    <use xlink:href="#path-1"></use>
                </mask>
                <g id="Clip-2"></g>
                <path d="M117.585,120.781 C120.059,118.831 122.344,116.657 124.415,114.287 L152.736,114.287 C152.218,116.494 151.59,118.662 150.864,120.781 L117.585,120.781 Z M126.856,111.269 C128.389,109.218 129.773,107.047 130.99,104.775 L154.269,104.775 C154.07,106.972 153.768,109.14 153.37,111.269 L126.856,111.269 Z M132.471,101.754 C133.415,99.664 134.226,97.493 134.884,95.263 L154.464,95.263 C154.52,96.363 154.542,97.473 154.542,98.586 C154.542,99.651 154.52,100.706 154.471,101.754 L132.471,101.754 Z M135.671,92.245 C136.156,90.129 136.508,87.958 136.72,85.748 L153.338,85.748 C153.745,87.88 154.054,90.048 154.256,92.245 L135.671,92.245 Z M136.918,82.733 C136.941,82.108 136.951,81.486 136.951,80.865 C136.951,79.302 136.879,77.756 136.742,76.239 L150.805,76.239 C151.538,78.355 152.166,80.523 152.69,82.733 L136.918,82.733 Z M136.381,73.218 C136.049,71.008 135.571,68.836 134.958,66.727 L146.674,66.727 C147.781,68.827 148.787,70.995 149.676,73.218 L136.381,73.218 Z M133.985,63.706 C133.181,61.466 132.221,59.295 131.124,57.212 L140.593,57.212 C142.179,59.288 143.64,61.457 144.978,63.706 L133.985,63.706 Z M129.402,54.194 C127.986,51.899 126.394,49.731 124.639,47.703 L131.82,47.703 C134.076,49.721 136.192,51.892 138.162,54.194 L129.402,54.194 Z M121.82,44.682 C119.362,42.253 116.651,40.076 113.734,38.188 L118.236,38.188 C121.758,40.063 125.101,42.24 128.223,44.682 L121.82,44.682 Z M108.405,35.17 C103.792,32.92 98.789,31.345 93.522,30.577 C99.915,31.267 106.045,32.842 111.787,35.17 L108.405,35.17 Z M2.539,101.702 C2.008,99.579 1.566,97.444 1.198,95.263 L25.649,95.263 C26.84,97.502 28.149,99.671 29.571,101.754 L2.552,101.754 L2.539,101.702 Z M26.342,142.826 L138.324,142.826 C136.368,145.124 134.268,147.296 132.032,149.317 L33.849,149.317 C32.231,148.096 30.675,146.811 29.154,145.46 C28.422,144.812 27.696,144.148 26.983,143.474 L26.296,142.826 L26.342,142.826 Z M23.321,139.799 C21.339,137.725 19.545,135.567 17.797,133.308 L145.089,133.311 C143.761,135.56 142.306,137.732 140.737,139.805 L23.432,139.799 L23.321,139.799 Z M15.586,130.296 C14.112,128.197 12.731,126.032 11.446,123.802 L54.24,123.799 C59.868,126.771 65.969,128.981 72.391,130.293 L15.638,130.293 L15.586,130.296 Z M9.789,120.784 C8.662,118.662 7.656,116.497 6.725,114.28 L40.561,114.287 C43.224,116.663 46.072,118.838 49.087,120.781 L9.991,120.781 L9.789,120.784 Z M5.501,111.214 C4.714,109.108 3.988,106.972 3.366,104.791 L31.749,104.775 C33.494,107.054 35.382,109.225 37.394,111.269 L5.521,111.269 L5.501,111.214 Z M0.745,92.245 C0.462,90.103 0.257,87.935 0.133,85.748 L21.501,85.748 C22.276,87.968 23.155,90.136 24.148,92.245 L0.745,92.245 Z M0.016,82.733 C0.006,82.108 0,81.486 0,80.865 C0,79.315 0.042,77.769 0.124,76.239 L18.949,76.239 C19.372,78.439 19.906,80.607 20.528,82.733 L0.016,82.733 Z M0.335,73.218 C0.527,71.03 0.801,68.862 1.152,66.727 L17.807,66.727 C17.917,68.918 18.129,71.086 18.441,73.218 L0.335,73.218 Z M3.288,57.212 L17.989,57.212 C17.81,59.21 17.722,61.229 17.722,63.27 L17.725,63.706 L1.709,63.706 C2.155,61.509 2.679,59.344 3.288,57.212 L3.288,57.212 Z M20.007,25.658 L20.323,25.29 L20.613,24.948 C22.361,22.917 24.122,21.009 26.029,19.164 L33.865,19.164 C32.12,21.227 30.496,23.399 28.998,25.658 L20.007,25.658 Z M4.206,54.194 C4.925,51.99 5.726,49.825 6.615,47.703 L19.503,47.703 C19.011,49.829 18.614,51.993 18.321,54.194 L4.206,54.194 Z M7.946,44.682 C8.975,42.465 10.085,40.297 11.296,38.188 L22.478,38.188 C21.641,40.304 20.906,42.468 20.284,44.682 L7.946,44.682 Z M64.113,164.161 C61.61,163.501 59.188,162.732 56.75,161.847 L112.227,161.847 C104.267,165.135 95.553,166.961 86.412,167 L85.615,167 L85.377,166.997 L85.143,166.994 L84.885,166.99 L84.648,166.99 L84.465,166.984 L84.182,166.977 L83.938,166.971 L83.707,166.964 C82.463,166.928 81.383,166.876 80.299,166.805 L80.071,166.788 L78.837,166.694 L78.616,166.674 L78.189,166.639 L77.616,166.583 L77.131,166.531 L76.532,166.466 L76.132,166.424 L75.67,166.372 L75.324,166.323 L75.106,166.3 L74.439,166.209 L74.228,166.18 L74.016,166.154 L73.811,166.124 L73.349,166.056 L72.932,165.994 L72.284,165.89 L72.089,165.857 L71.89,165.825 L71.617,165.779 L71.132,165.695 L70.93,165.659 L70.604,165.604 L70.38,165.561 L70.162,165.522 L69.95,165.483 L69.768,165.447 L69.595,165.411 L69.419,165.379 L69.208,165.337 L68.658,165.226 L68.443,165.18 L68.107,165.109 L67.896,165.066 L67.632,165.005 L67.242,164.92 L66.877,164.839 L66.691,164.796 L66.512,164.754 L66.327,164.712 L66.145,164.669 L65.965,164.624 L65.786,164.585 L65.585,164.529 L65.38,164.484 L65.178,164.435 L64.995,164.386 L64.803,164.34 L64.608,164.292 L64.416,164.24 L64.204,164.187 L64.113,164.161 Z M49.468,158.839 L49.044,158.637 L48.716,158.478 L48.507,158.377 L48.305,158.279 L48.035,158.142 L47.661,157.954 L47.391,157.82 L47.117,157.68 L46.909,157.576 L46.623,157.429 L46.352,157.283 L46.154,157.182 L45.897,157.045 L45.61,156.892 L45.327,156.739 L45.138,156.638 L44.865,156.489 L44.507,156.293 L44.298,156.173 L43.842,155.919 L43.403,155.668 L43.029,155.457 C41.333,154.47 39.666,153.429 38.045,152.335 L128.464,152.335 C125.372,154.77 122.067,156.944 118.581,158.832 L49.468,158.839 Z M50.519,2.408 C52.072,1.699 53.647,1.035 55.288,0.416 L56.024,0.139 L59.787,0.139 C55.558,1.907 51.544,4.088 47.791,6.631 L42.41,6.631 C45.031,5.088 47.736,3.675 50.519,2.408 L50.519,2.408 Z M42.41,6.631 C45.167,5.048 47.807,3.655 50.519,2.408 C47.736,3.675 45.031,5.088 42.41,6.631 L42.41,6.631 Z M27.12,28.676 C25.886,30.772 24.76,32.937 23.757,35.17 L13.103,35.17 C14.512,32.934 16.016,30.736 17.618,28.672 L27.12,28.676 Z M29.291,16.146 C30.059,15.469 30.828,14.818 31.593,14.189 C33.562,12.575 35.541,11.084 37.661,9.652 L43.683,9.652 C41.163,11.647 38.784,13.818 36.57,16.146 L29.291,16.146 Z M97.985,130.293 C103.506,128.978 108.675,126.755 113.33,123.799 L149.751,123.799 C148.865,126.022 147.872,128.193 146.769,130.293 L97.985,130.293 L97.985,130.293 Z" id="Fill-1" fill="#005C9C" mask="url(#mask-2)"></path>
            </g>
            <path d="M140.739,145.805 L148.942,145.805 C147.969,146.836 146.992,147.842 145.973,148.822 L138.304,148.822 C139.147,147.839 139.958,146.836 140.739,145.805 L140.739,145.805 Z M138.421,155.32 C137.028,156.375 135.654,157.377 134.215,158.334 L128.457,158.334 C129.687,157.371 130.875,156.365 132.038,155.32 L138.421,155.32 Z M145.078,139.31 C145.664,138.321 146.231,137.315 146.771,136.293 L156.683,136.302 L156.534,136.501 C155.86,137.458 155.166,138.392 154.46,139.32 L145.078,139.31 Z M152.722,120.283 C152.959,119.29 153.174,118.284 153.366,117.272 L166.749,117.272 C166.365,118.284 165.954,119.293 165.538,120.283 L152.722,120.283 Z M49.079,126.781 L54.682,126.781 C56.042,127.855 57.462,128.864 58.936,129.798 L54.252,129.798 C52.471,128.867 50.766,127.858 49.079,126.781 L49.079,126.781 Z M150.863,126.781 L162.475,126.781 C161.941,127.799 161.397,128.805 160.821,129.798 L149.743,129.798 C150.14,128.805 150.508,127.799 150.863,126.781 L150.863,126.781 Z M37.389,117.272 L45.414,117.272 C46.189,118.307 46.999,119.313 47.852,120.283 L40.567,120.283 C39.47,119.316 38.418,118.307 37.389,117.272 L37.389,117.272 Z M29.567,107.753 L39.795,107.753 C40.261,108.782 40.752,109.785 41.283,110.771 L31.748,110.771 C30.99,109.788 30.273,108.782 29.567,107.753 L29.567,107.753 Z M154.47,107.753 L169.718,107.753 C169.467,108.769 169.19,109.778 168.904,110.771 L154.268,110.771 C154.359,109.778 154.424,108.766 154.47,107.753 L154.47,107.753 Z M24.14,98.245 L36.595,98.245 C36.826,99.263 37.09,100.269 37.386,101.262 L25.654,101.262 C25.123,100.269 24.622,99.267 24.14,98.245 L24.14,98.245 Z M154.252,98.245 L171.528,98.245 C171.391,99.257 171.238,100.263 171.072,101.262 L154.463,101.262 C154.414,100.253 154.343,99.244 154.252,98.245 L154.252,98.245 Z M20.53,88.733 L35.348,88.733 C35.388,89.745 35.449,90.754 35.547,91.747 L21.503,91.747 C21.152,90.757 20.836,89.748 20.53,88.733 L20.53,88.733 Z M152.696,88.733 L172.247,88.733 C172.224,89.745 172.188,90.748 172.133,91.747 L153.334,91.747 C153.145,90.735 152.93,89.729 152.696,88.733 L152.696,88.733 Z M18.443,79.221 L35.889,79.221 C35.736,80.217 35.612,81.226 35.527,82.235 L18.951,82.235 C18.756,81.242 18.59,80.236 18.443,79.221 L18.443,79.221 Z M149.681,79.221 L171.935,79.221 C172.019,80.223 172.094,81.229 172.143,82.235 L150.804,82.235 C150.456,81.223 150.075,80.213 149.681,79.221 L149.681,79.221 Z M17.727,69.709 L38.281,69.709 C37.927,70.701 37.601,71.707 37.308,72.723 L17.812,72.723 C17.76,71.724 17.734,70.718 17.727,69.709 L17.727,69.709 Z M144.977,69.709 L170.561,69.709 C170.763,70.708 170.945,71.714 171.114,72.723 L146.673,72.723 C146.136,71.704 145.563,70.698 144.977,69.709 L144.977,69.709 Z M18.317,60.193 L42.865,60.193 C42.256,61.183 41.686,62.186 41.14,63.211 L17.991,63.211 C18.079,62.202 18.186,61.196 18.317,60.193 L18.317,60.193 Z M138.167,60.193 L168.061,60.193 C168.383,61.193 168.695,62.199 168.982,63.211 L140.586,63.211 C139.808,62.182 139.001,61.18 138.167,60.193 L138.167,60.193 Z M20.283,50.685 L50.447,50.685 C49.467,51.651 48.529,52.654 47.627,53.699 L19.505,53.699 C19.743,52.687 20.003,51.681 20.283,50.685 L20.283,50.685 Z M128.225,50.685 L164.324,50.685 C164.786,51.677 165.229,52.687 165.655,53.699 L131.826,53.699 C130.67,52.654 129.453,51.651 128.225,50.685 L128.225,50.685 Z M23.746,41.169 L63.862,41.169 C62.022,42.071 60.242,43.077 58.529,44.187 L22.48,44.187 C22.881,43.171 23.304,42.165 23.746,41.169 L23.746,41.169 Z M111.793,41.169 L159.164,41.169 C159.782,42.165 160.388,43.171 160.971,44.187 L118.245,44.187 C116.184,43.077 113.974,42.068 111.793,41.169 L111.793,41.169 Z M29.001,31.657 L152.256,31.657 C153.083,32.647 153.884,33.653 154.665,34.678 L27.116,34.678 C27.711,33.656 28.356,32.647 29.001,31.657 L29.001,31.657 Z M36.576,22.145 L142.979,22.145 C144.092,23.125 145.179,24.131 146.24,25.163 L33.864,25.163 C34.733,24.131 35.651,23.128 36.576,22.145 L36.576,22.145 Z M47.793,12.633 L129.856,12.633 C131.478,13.587 133.06,14.593 134.606,15.651 L43.685,15.651 C45.01,14.593 46.394,13.587 47.793,12.633 L47.793,12.633 Z M116.253,6.139 L59.773,6.139 C67.856,2.711 76.385,0.787 85.695,0.725 L85.906,0.722 L86.134,0.722 C95.217,0.742 103.853,2.122 111.969,4.667 C113.417,5.123 114.84,5.611 116.253,6.139 L116.253,6.139 Z M118.587,164.832 L122.802,164.832 C120.771,165.776 118.759,166.645 116.666,167.433 L115.536,167.846 L112.213,167.846 C114.42,166.951 116.503,165.945 118.587,164.832 L118.587,164.832 Z" id="Fill-4" fill="#005C9C"></path>
            <path d="M123.853,57.241 L100.268,57.245 C93.477,57.407 88.018,62.967 88.018,69.804 L88.012,133.63 C92,133.63 94.073,132.178 94.073,130.512 C94.073,130.512 94.024,87.265 94.047,69.771 C94.054,66.122 96.876,63.299 100.359,63.299 L127.915,63.299 C126.714,61.177 125.353,59.149 123.853,57.241 M48.408,57.241 L71.996,57.245 C78.786,57.407 84.242,62.967 84.242,69.804 L84.245,133.63 C80.261,133.63 78.187,132.178 78.187,130.512 C78.187,130.512 78.239,87.265 78.213,69.771 C78.21,66.122 75.384,63.299 71.901,63.299 L44.348,63.299 C45.55,61.177 46.91,59.149 48.408,57.241 M80.053,48.472 C80.053,45.112 82.777,42.387 86.133,42.387 C89.493,42.387 92.214,45.112 92.214,48.472 C92.214,51.828 89.493,54.549 86.133,54.549 C82.777,54.549 80.053,51.828 80.053,48.472" id="Fill-5" fill="#005C9C"></path>
            <path d="M192.207,157.612 L197.438,157.612 C200.973,157.612 201.859,158.573 202.171,159.927 C202.663,162.033 202.953,164.663 203.447,165.988 L206.309,165.988 C205.788,164.764 205.553,163.101 205.241,161.099 C204.746,157.921 204.066,156.909 201.549,156.597 L201.549,156.544 C204.173,156.18 205.84,154.464 205.84,152.176 C205.84,149.158 204.538,147.205 198.737,147.205 L189.502,147.205 L189.502,165.988 L192.207,165.988 L192.207,157.612 Z M192.207,149.34 L198.428,149.34 C201.725,149.34 202.975,150.122 202.975,152.407 C202.975,154.803 201.234,155.477 198.372,155.477 L192.207,155.477 L192.207,149.34 L192.207,149.34 Z" id="Fill-6" fill="#005C9C"></path>
            <path d="M213.398,158.364 C213.789,155.48 215.661,154.204 218.288,154.204 C220.527,154.204 222.764,155.35 222.816,158.364 L213.398,158.364 Z M225.521,159.354 C225.521,154.933 222.972,152.436 218.343,152.436 C213.61,152.436 210.745,154.959 210.745,159.718 C210.745,163.856 213.476,166.48 218.262,166.48 C221.149,166.48 224.691,165.545 225.208,162.059 L222.503,162.059 C221.93,163.934 219.98,164.715 218.131,164.715 C215.273,164.715 213.554,162.814 213.294,160.135 L225.521,160.135 L225.521,159.354 L225.521,159.354 Z" id="Fill-7" fill="#005C9C"></path>
            <path d="M229.803,162.268 C229.985,165.311 232.947,166.483 236.431,166.483 C241.379,166.483 243.693,165.051 243.693,162.268 C243.693,160.318 242.525,159.302 240.077,158.837 L235.76,158.026 C233.81,157.661 232.98,157.092 232.98,156.18 C232.98,154.985 234.591,154.201 236.877,154.201 C238.833,154.201 240.285,154.67 240.646,156.31 L243.12,156.31 C242.967,153.11 239.478,152.437 236.773,152.437 C233.159,152.437 230.428,153.628 230.428,156.515 C230.428,161.721 240.988,159.409 240.988,162.45 C240.988,163.827 239.585,164.712 236.72,164.712 C234.406,164.712 232.742,164.087 232.508,162.268 L229.803,162.268" id="Fill-8" fill="#005C9C"></path>
            <path d="M250.63,158.364 C251.018,155.48 252.893,154.204 255.52,154.204 C257.759,154.204 259.993,155.35 260.048,158.364 L250.63,158.364 Z M262.753,159.354 C262.753,154.933 260.207,152.436 255.572,152.436 C250.839,152.436 247.977,154.959 247.977,159.718 C247.977,163.856 250.705,166.48 255.49,166.48 C258.384,166.48 261.92,165.545 262.441,162.059 L259.735,162.059 C259.166,163.934 257.216,164.715 255.363,164.715 C252.502,164.715 250.786,162.814 250.529,160.135 L262.753,160.135 L262.753,159.354 L262.753,159.354 Z" id="Fill-9" fill="#005C9C"></path>
            <path d="M270.414,156.335 C270.548,154.906 272.058,154.203 273.855,154.203 C276.375,154.203 277.934,154.985 277.934,157.478 L277.934,157.843 C276.739,157.843 275.408,157.843 273.487,157.898 C268.855,158.028 266.775,159.461 266.775,162.218 C266.775,164.659 269.04,166.482 272.345,166.482 C274.89,166.482 276.557,166.114 278.038,164.164 L278.09,164.164 C278.09,164.767 278.116,165.388 278.194,165.987 L280.59,165.987 C280.509,165.288 280.48,164.48 280.48,163.491 L280.48,157.065 C280.48,153.813 277.833,152.436 274.21,152.436 C271.378,152.436 268.022,153.24 267.709,156.335 L270.414,156.335 Z M277.934,160.213 C277.934,163.357 276.17,164.715 273.015,164.715 C270.548,164.715 269.483,163.439 269.483,162.14 C269.483,160.239 271.221,159.793 273.875,159.692 C275.828,159.617 277.078,159.617 277.934,159.617 L277.934,160.213 L277.934,160.213 Z" id="Fill-10" fill="#005C9C"></path>
            <path d="M286.323,165.989 L288.875,165.989 L288.875,159.664 C288.875,157.04 290.564,154.878 293.637,154.878 C294.106,154.878 294.468,154.904 294.858,155.035 L294.858,152.746 L294.002,152.746 C291.082,152.746 289.943,153.423 288.771,155.529 L288.722,155.529 C288.722,154.644 288.67,153.71 288.615,152.928 L286.222,152.928 C286.274,153.97 286.323,154.904 286.323,155.894 L286.323,165.989" id="Fill-11" fill="#005C9C"></path>
            <path d="M309.627,161.773 C309.494,163.593 307.886,164.713 305.493,164.713 C302.264,164.713 300.626,162.268 300.626,159.482 C300.626,155.999 302.859,154.205 305.62,154.205 C307.752,154.205 309.285,155.191 309.523,157.092 L312.228,157.092 C311.789,153.684 308.745,152.434 305.597,152.434 C300.887,152.434 297.921,155.087 297.921,159.482 C297.921,163.701 300.493,166.484 305.36,166.484 C308.69,166.484 312.075,165.078 312.332,161.773 L309.627,161.773" id="Fill-12" fill="#005C9C"></path>
            <path d="M317.471,165.989 L320.023,165.989 L320.023,159.823 C320.023,155.689 322.781,154.205 325.199,154.205 C327.641,154.205 329.386,155.79 329.386,158.707 L329.386,165.989 L331.938,165.989 L331.938,158.573 C331.938,154.491 329.282,152.437 325.613,152.437 C323.298,152.437 321.273,153.267 320.076,155.22 L320.023,155.22 L320.023,147.206 L317.471,147.206 L317.471,165.989" id="Fill-13" fill="#005C9C"></path>
            <path d="M364.879,160.758 C364.407,163.209 361.913,164.345 359.338,164.345 C355.044,164.345 351.844,161.874 351.844,156.598 C351.844,151.314 355.044,148.847 359.338,148.847 C361.936,148.847 364.146,149.706 364.618,152.148 L367.636,152.148 C367.401,148.948 363.993,146.711 359.547,146.711 C351.662,146.711 348.986,152.118 348.986,156.598 C348.986,161.773 352.079,166.484 358.791,166.484 C363.401,166.484 367.297,164.895 367.9,160.758 L364.879,160.758" id="Fill-14" fill="#005C9C"></path>
            <path d="M388.728,159.455 C388.728,154.982 385.869,152.437 380.557,152.437 C375.101,152.437 372.393,155.217 372.393,159.455 C372.393,163.934 375.254,166.483 380.557,166.483 C385.869,166.483 388.728,163.934 388.728,159.455 M380.557,154.204 C384.128,154.204 386.022,156.493 386.022,159.455 C386.022,162.424 384.128,164.712 380.557,164.712 C376.996,164.712 375.101,162.424 375.101,159.455 C375.101,156.493 376.996,154.204 380.557,154.204" id="Fill-15" fill="#005C9C"></path>
            <path d="M408.336,152.929 L405.79,152.929 L405.79,159.095 C405.79,163.232 403.033,164.71 400.611,164.71 C398.17,164.71 396.421,163.125 396.421,160.208 L396.421,152.929 L393.872,152.929 L393.872,160.339 C393.872,164.424 396.526,166.485 400.194,166.485 C402.538,166.485 404.41,165.677 405.895,163.672 L405.947,163.672 C405.947,164.583 405.999,165.335 406.048,165.986 L408.44,165.986 C408.388,164.948 408.336,164.014 408.336,163.021 L408.336,152.929" id="Fill-16" fill="#005C9C"></path>
            <path d="M414.42,165.989 L416.969,165.989 L416.969,159.823 C416.969,155.689 419.723,154.205 422.145,154.205 C424.589,154.205 426.334,155.79 426.334,158.707 L426.334,165.989 L428.886,165.989 L428.886,158.573 C428.886,154.491 426.233,152.437 422.564,152.437 C420.224,152.437 418.349,153.244 416.868,155.243 L416.816,155.243 C416.816,154.335 416.76,153.58 416.708,152.928 L414.316,152.928 C414.368,153.97 414.42,154.904 414.42,155.894 L414.42,165.989" id="Fill-17" fill="#005C9C"></path>
            <path d="M445.734,161.773 C445.607,163.593 443.995,164.713 441.6,164.713 C438.377,164.713 436.733,162.268 436.733,159.482 C436.733,155.999 438.976,154.205 441.733,154.205 C443.865,154.205 445.395,155.191 445.633,157.092 L448.341,157.092 C447.895,153.684 444.848,152.434 441.704,152.434 C436.997,152.434 434.034,155.087 434.034,159.482 C434.034,163.701 436.606,166.484 441.469,166.484 C444.803,166.484 448.182,165.078 448.439,161.773 L445.734,161.773" id="Fill-18" fill="#005C9C"></path>
            <path d="M453.762,149.809 L456.314,149.809 L456.314,147.205 L453.762,147.205 L453.762,149.809 Z M453.762,165.988 L456.314,165.988 L456.314,152.928 L453.762,152.928 L453.762,165.988 Z" id="Fill-19" fill="#005C9C"></path>
            <polygon id="Fill-20" fill="#005C9C" points="462.756 165.988 465.302 165.988 465.302 147.202 462.756 147.202"></polygon>
            <polyline id="Fill-21" fill="#005C9C" points="204.257 138.375 206.958 138.375 206.958 119.615 204.257 119.615 204.257 127.516 192.202 127.516 192.202 119.615 189.497 119.615 189.497 138.375 192.202 138.375 192.202 129.645 204.257 129.645 204.257 138.375"></polyline>
            <path d="M228.61,125.334 L226.067,125.334 L226.067,131.49 C226.067,135.621 223.31,137.105 220.891,137.105 C218.453,137.105 216.712,135.52 216.712,132.607 L216.712,125.334 L214.163,125.334 L214.163,132.737 C214.163,136.819 216.816,138.87 220.481,138.87 C222.815,138.87 224.69,138.066 226.165,136.064 L226.22,136.064 C226.22,136.975 226.272,137.724 226.325,138.375 L228.714,138.375 C228.665,137.337 228.61,136.402 228.61,135.413 L228.61,125.334" id="Fill-22" fill="#005C9C"></path>
            <path d="M235.396,138.375 L237.941,138.375 L237.941,132.063 C237.941,128.219 240.386,126.607 242.623,126.607 C244.963,126.607 246.158,128.189 246.158,131.699 L246.158,138.375 L248.703,138.375 L248.703,132.428 C248.703,128.141 250.989,126.607 253.222,126.607 C256.002,126.607 256.913,128.684 256.913,131.855 L256.913,138.375 L259.459,138.375 L259.459,130.895 C259.459,126.656 257.177,124.84 253.456,124.84 C251.041,124.84 249.013,126.321 248.082,128.111 C247.323,125.907 245.503,124.84 243.322,124.84 C241.197,124.84 239.322,125.644 237.844,127.646 L237.792,127.646 C237.792,126.734 237.74,125.986 237.684,125.335 L235.295,125.335 C235.347,126.373 235.396,127.307 235.396,128.3 L235.396,138.375" id="Fill-23" fill="#005C9C"></path>
            <path d="M268.944,128.738 C269.078,127.309 270.582,126.609 272.378,126.609 C274.898,126.609 276.457,127.387 276.457,129.88 L276.457,130.242 C275.259,130.242 273.934,130.242 272.014,130.294 C267.388,130.424 265.308,131.853 265.308,134.61 C265.308,137.052 267.57,138.868 270.868,138.868 C273.414,138.868 275.08,138.507 276.562,136.56 L276.61,136.56 C276.61,137.156 276.636,137.778 276.718,138.377 L279.104,138.377 C279.032,137.677 279.003,136.869 279.003,135.883 L279.003,129.464 C279.003,126.218 276.353,124.841 272.74,124.841 C269.911,124.841 266.558,125.645 266.245,128.738 L268.944,128.738 Z M276.457,132.608 C276.457,135.753 274.69,137.104 271.548,137.104 C269.078,137.104 268.013,135.828 268.013,134.532 C268.013,132.631 269.751,132.191 272.404,132.087 C274.351,132.016 275.598,132.016 276.457,132.016 L276.457,132.608 L276.457,132.608 Z" id="Fill-24" fill="#005C9C"></path>
            <path d="M285.548,138.375 L288.094,138.375 L288.094,132.219 C288.094,128.089 290.851,126.607 293.267,126.607 C295.705,126.607 297.45,128.189 297.45,131.1 L297.45,138.375 L299.995,138.375 L299.995,130.969 C299.995,126.894 297.346,124.84 293.683,124.84 C291.343,124.84 289.474,125.644 287.99,127.646 L287.944,127.646 C287.944,126.734 287.892,125.986 287.837,125.335 L285.447,125.335 C285.496,126.373 285.548,127.307 285.548,128.3 L285.548,138.375" id="Fill-25" fill="#005C9C"></path>
            <path d="M337.657,124.605 C337.397,120.291 333.262,119.123 329.369,119.123 C324.252,119.123 321.182,121.203 321.182,124.816 C321.182,132.662 335.551,127.954 335.551,133.153 C335.551,135.207 333.396,136.737 329.499,136.737 C325.938,136.737 323.526,135.285 323.447,132.766 L320.586,132.766 C320.925,136.897 324.017,138.869 329.346,138.869 C334.9,138.869 338.253,136.61 338.253,132.867 C338.253,130.552 336.85,128.817 333.812,128.296 L326.823,127.098 C324.509,126.708 323.884,125.669 323.884,124.657 C323.884,122.58 326.146,121.255 328.822,121.255 C331.859,121.255 334.538,121.984 334.799,124.605 L337.657,124.605" id="Fill-26" fill="#005C9C"></path>
            <path d="M355.149,134.166 C355.015,135.986 353.404,137.102 351.014,137.102 C347.792,137.102 346.158,134.661 346.158,131.881 C346.158,128.401 348.391,126.607 351.141,126.607 C353.274,126.607 354.807,127.593 355.044,129.488 L357.743,129.488 C357.3,126.086 354.263,124.839 351.119,124.839 C346.418,124.839 343.456,127.492 343.456,131.881 C343.456,136.09 346.027,138.87 350.881,138.87 C354.208,138.87 357.59,137.467 357.847,134.166 L355.149,134.166" id="Fill-27" fill="#005C9C"></path>
            <path d="M363.876,122.214 L366.425,122.214 L366.425,119.616 L363.876,119.616 L363.876,122.214 Z M363.876,138.377 L366.425,138.377 L366.425,125.329 L363.876,125.329 L363.876,138.377 Z" id="Fill-28" fill="#005C9C"></path>
            <path d="M374.92,130.763 C375.31,127.879 377.179,126.609 379.806,126.609 C382.039,126.609 384.275,127.752 384.324,130.763 L374.92,130.763 Z M387.029,131.749 C387.029,127.332 384.484,124.838 379.855,124.838 C375.131,124.838 372.27,127.358 372.27,132.117 C372.27,136.248 374.998,138.869 379.78,138.869 C382.661,138.869 386.199,137.935 386.72,134.455 L384.012,134.455 C383.445,136.323 381.495,137.104 379.649,137.104 C376.791,137.104 375.076,135.21 374.815,132.534 L387.029,132.534 L387.029,131.749 L387.029,131.749 Z" id="Fill-29" fill="#005C9C"></path>
            <path d="M392.691,138.375 L395.24,138.375 L395.24,132.219 C395.24,128.089 397.991,126.607 400.409,126.607 C402.848,126.607 404.592,128.189 404.592,131.1 L404.592,138.375 L407.138,138.375 L407.138,130.969 C407.138,126.894 404.488,124.84 400.823,124.84 C398.485,124.84 396.617,125.644 395.136,127.646 L395.087,127.646 C395.087,126.734 395.032,125.986 394.979,125.335 L392.587,125.335 C392.639,126.373 392.691,127.307 392.691,128.3 L392.691,138.375" id="Fill-30" fill="#005C9C"></path>
            <path d="M424.683,134.166 C424.55,135.986 422.942,137.102 420.552,137.102 C417.326,137.102 415.692,134.661 415.692,131.881 C415.692,128.401 417.928,126.607 420.679,126.607 C422.815,126.607 424.345,127.593 424.579,129.488 L427.278,129.488 C426.838,126.086 423.798,124.839 420.653,124.839 C415.949,124.839 412.99,127.492 412.99,131.881 C412.99,136.09 415.562,138.87 420.419,138.87 C423.746,138.87 427.125,137.467 427.382,134.166 L424.683,134.166" id="Fill-31" fill="#005C9C"></path>
            <path d="M434.763,130.763 C435.154,127.879 437.026,126.609 439.649,126.609 C441.883,126.609 444.116,127.752 444.168,130.763 L434.763,130.763 Z M446.873,131.749 C446.873,127.332 444.327,124.838 439.702,124.838 C434.972,124.838 432.113,127.358 432.113,132.117 C432.113,136.248 434.845,138.869 439.627,138.869 C442.508,138.869 446.043,137.935 446.564,134.455 L443.855,134.455 C443.286,136.323 441.339,137.104 439.493,137.104 C436.635,137.104 434.923,135.21 434.659,132.534 L446.873,132.534 L446.873,131.749 L446.873,131.749 Z" id="Fill-32" fill="#005C9C"></path>
            <path d="M451.863,134.66 C452.045,137.7 455.004,138.872 458.487,138.872 C463.425,138.872 465.737,137.443 465.737,134.66 C465.737,132.713 464.568,131.698 462.123,131.232 L457.81,130.428 C455.86,130.06 455.033,129.494 455.033,128.582 C455.033,127.384 456.641,126.606 458.93,126.606 C460.88,126.606 462.338,127.072 462.693,128.713 L465.164,128.713 C465.007,125.516 461.524,124.839 458.822,124.839 C455.209,124.839 452.484,126.037 452.484,128.918 C452.484,134.116 463.031,131.802 463.031,134.842 C463.031,136.219 461.629,137.105 458.774,137.105 C456.462,137.105 454.799,136.48 454.561,134.66 L451.863,134.66" id="Fill-33" fill="#005C9C"></path>
            <path d="M210.777,71.499 L248.19,71.499 L248.19,90.51 C248.19,96.776 245.26,100.321 238.385,100.321 L238.385,104.163 L269.63,104.163 L269.63,100.321 C260.73,100.321 258.812,96.477 258.812,89.397 L258.812,49.555 C258.812,42.377 261.443,39.037 269.63,39.037 L269.63,35.193 L238.385,35.193 L238.385,39.037 C245.059,39.037 248.19,42.582 248.19,48.243 L248.19,66.242 L210.777,66.242 L210.777,49.05 C210.777,41.365 214.722,39.037 221.698,39.037 L221.698,35.193 L189.543,35.193 L189.543,39.037 C197.023,39.037 200.158,41.869 200.158,48.946 L200.158,89.8 C200.158,96.477 198.338,100.321 189.543,100.321 L189.543,104.163 L221.698,104.163 L221.698,100.321 C214.117,100.321 210.777,97.59 210.777,90.103 L210.777,71.499" id="Fill-34" fill="#005C9C"></path>
            <path d="M274.604,100.52 C279.657,103.153 290.581,105.373 297.968,105.373 C312.727,105.373 323.242,97.489 323.242,86.261 C323.242,81.31 321.318,77.361 317.682,73.725 C310.097,66.137 295.031,60.173 289.67,54.815 C287.447,52.592 286.434,50.463 286.434,47.937 C286.434,42.474 291.897,38.33 298.873,38.33 C308.277,38.33 315.559,44.297 316.266,54.61 L320.618,54.61 L320.618,39.75 C313.938,36.006 306.253,33.984 299.475,33.984 C285.529,33.984 276.021,40.961 276.021,51.378 C276.021,55.922 277.743,59.262 280.568,62.094 C289.064,70.594 302.616,75.242 309.189,81.815 C312.122,84.748 312.831,87.375 312.831,89.194 C312.831,95.36 306.047,100.52 297.662,100.52 C286.434,100.52 280.972,93.544 278.957,83.127 L274.604,83.127 L274.604,100.52" id="Fill-35" fill="#005C9C"></path>
            <path d="M350.694,71.599 L353.624,71.599 C358.178,71.599 359.292,72.712 361.717,75.746 L375.164,92.53 C382.746,101.935 385.783,104.162 393.069,104.162 L401.158,104.162 L401.158,100.32 C397.213,100.32 392.056,95.467 384.367,86.765 L369.904,70.284 C383.56,68.06 388.716,60.375 388.716,52.995 C388.716,43.183 381.838,35.195 362.928,35.195 L329.863,35.195 L329.863,39.036 C336.944,39.036 340.072,42.272 340.072,48.948 L340.072,88.686 C340.072,95.467 338.764,100.32 329.863,100.32 L329.863,104.162 L361.31,104.162 L361.31,100.32 C353.725,100.32 350.694,97.182 350.694,90.815 L350.694,71.599 Z M351.189,67.253 L351.189,39.544 L359.073,39.544 C371.515,39.544 376.971,46.52 376.971,54.206 C376.971,62.295 372.02,67.253 360.691,67.253 L351.189,67.253 L351.189,67.253 Z" id="Fill-36" fill="#005C9C"></path>
            <path d="M464.781,54.815 L462.326,38.737 C453.921,35.602 446.137,33.984 438.654,33.984 C411.748,33.984 398.603,52.995 398.603,70.691 C398.603,91.017 414.584,105.373 437.237,105.373 C445.327,105.373 457.056,103.049 464.781,99.914 L465.288,84.038 L461.506,84.038 C458.976,95.467 450.281,101.027 438.956,101.027 C420.951,101.027 410.837,86.163 410.837,68.972 C410.837,48.545 423.783,38.333 437.537,38.333 C447.553,38.333 456.854,44.701 461.506,54.815 L464.781,54.815" id="Fill-37" fill="#005C9C"></path>
        </g>
    </g>
</svg>