<svg width="851" height="156" viewBox="0 0 851 156" fill="none" xmlns="http://www.w3.org/2000/svg">
<path d="M0 0H156V156H0V0Z" fill="white"/>
<path fill-rule="evenodd" clip-rule="evenodd" d="M151 5H5V151H151V5ZM0 0V156H156V0H0Z" fill="#74B233"/>
<path d="M88.1507 94.44V137H67.7827V94.44L27.7307 27.104H45.7427C47.5161 27.104 48.9094 27.5347 49.9227 28.396C50.9867 29.2573 51.8734 30.3467 52.5827 31.664L72.6467 68.372C73.8121 70.5507 74.8254 72.6027 75.6867 74.528C76.5987 76.4533 77.4094 78.3787 78.1187 80.304C78.7774 78.3787 79.5374 76.4533 80.3987 74.528C81.2601 72.6027 82.2481 70.5507 83.3627 68.372L103.351 31.664C103.908 30.5493 104.744 29.5107 105.859 28.548C106.973 27.5853 108.392 27.104 110.115 27.104H128.203L88.1507 94.44Z" fill="#74B233"/>
<path d="M233.65 88.8V117H222V88.8L195.7 45H205.95C206.983 45 207.8 45.25 208.4 45.75C209 46.25 209.5 46.8833 209.9 47.65L224.65 73.45C225.317 74.75 225.917 75.9833 226.45 77.15C227.017 78.3167 227.517 79.4667 227.95 80.6C228.317 79.4333 228.767 78.2833 229.3 77.15C229.833 75.9833 230.433 74.75 231.1 73.45L245.75 47.65C246.083 46.9833 246.567 46.3833 247.2 45.85C247.833 45.2833 248.65 45 249.65 45H259.95L233.65 88.8Z" fill="black"/>
<path d="M277.139 65.2C280.906 65.2 284.306 65.8167 287.339 67.05C290.406 68.2833 293.006 70.0333 295.139 72.3C297.306 74.5667 298.972 77.3167 300.139 80.55C301.306 83.7833 301.889 87.4167 301.889 91.45C301.889 95.4833 301.306 99.1167 300.139 102.35C298.972 105.583 297.306 108.35 295.139 110.65C293.006 112.917 290.406 114.667 287.339 115.9C284.306 117.133 280.906 117.75 277.139 117.75C273.339 117.75 269.906 117.133 266.839 115.9C263.806 114.667 261.206 112.917 259.039 110.65C256.872 108.35 255.206 105.583 254.039 102.35C252.872 99.1167 252.289 95.4833 252.289 91.45C252.289 87.4167 252.872 83.7833 254.039 80.55C255.206 77.3167 256.872 74.5667 259.039 72.3C261.206 70.0333 263.806 68.2833 266.839 67.05C269.906 65.8167 273.339 65.2 277.139 65.2ZM277.139 109.35C281.739 109.35 285.156 107.817 287.389 104.75C289.656 101.65 290.789 97.2333 290.789 91.5C290.789 85.7667 289.656 81.35 287.389 78.25C285.156 75.1167 281.739 73.55 277.139 73.55C272.472 73.55 269.006 75.1167 266.739 78.25C264.472 81.35 263.339 85.7667 263.339 91.5C263.339 97.2333 264.472 101.65 266.739 104.75C269.006 107.817 272.472 109.35 277.139 109.35Z" fill="black"/>
<path d="M355.218 66V117H348.718C347.285 117 346.368 116.317 345.968 114.95L345.168 110.2C344.101 111.333 342.968 112.367 341.768 113.3C340.601 114.233 339.351 115.033 338.018 115.7C336.685 116.367 335.251 116.883 333.718 117.25C332.218 117.617 330.601 117.8 328.868 117.8C326.068 117.8 323.601 117.333 321.468 116.4C319.335 115.467 317.535 114.15 316.068 112.45C314.635 110.75 313.551 108.717 312.818 106.35C312.085 103.95 311.718 101.317 311.718 98.45V66H322.468V98.45C322.468 101.883 323.251 104.55 324.818 106.45C326.418 108.35 328.835 109.3 332.068 109.3C334.435 109.3 336.635 108.767 338.668 107.7C340.735 106.6 342.668 105.1 344.468 103.2V66H355.218Z" fill="black"/>
<path d="M384.623 117.8C380.389 117.8 377.123 116.617 374.823 114.25C372.556 111.85 371.423 108.483 371.423 104.15V74.45H365.823C365.223 74.45 364.706 74.2667 364.273 73.9C363.839 73.5 363.623 72.9167 363.623 72.15V67.8L371.873 66.6L374.223 51.85C374.389 51.2833 374.673 50.8333 375.073 50.5C375.473 50.1333 376.006 49.95 376.673 49.95H382.173V66.7H396.323V74.45H382.173V103.4C382.173 105.233 382.623 106.633 383.523 107.6C384.423 108.567 385.623 109.05 387.123 109.05C387.956 109.05 388.673 108.95 389.273 108.75C389.873 108.517 390.389 108.283 390.823 108.05C391.256 107.783 391.623 107.55 391.923 107.35C392.256 107.117 392.573 107 392.873 107C393.473 107 393.956 107.333 394.323 108L397.523 113.25C395.856 114.717 393.889 115.85 391.623 116.65C389.356 117.417 387.023 117.8 384.623 117.8Z" fill="black"/>
<path d="M415.546 72.05C417.646 69.9833 419.946 68.3333 422.446 67.1C424.946 65.8333 427.863 65.2 431.196 65.2C433.996 65.2 436.446 65.6667 438.546 66.6C440.679 67.5333 442.463 68.85 443.896 70.55C445.363 72.25 446.463 74.3 447.196 76.7C447.929 79.0667 448.296 81.6833 448.296 84.55V117H437.596V84.55C437.596 81.1167 436.796 78.45 435.196 76.55C433.629 74.65 431.229 73.7 427.996 73.7C425.596 73.7 423.363 74.25 421.296 75.35C419.263 76.45 417.346 77.95 415.546 79.85V117H404.796V43H415.546V72.05Z" fill="black"/>
<path d="M532.703 107.55L532.653 117H487.753V45H532.653V54.45H499.503V76.15H526.003V85.3H499.503V107.55H532.703Z" fill="black"/>
<path d="M587.17 117H576.87C576.037 117 575.37 116.783 574.87 116.35C574.404 115.917 574.02 115.433 573.72 114.9L561.97 96.05C561.67 97.1833 561.27 98.1667 560.77 99L550.12 114.9C549.754 115.433 549.337 115.917 548.87 116.35C548.437 116.783 547.854 117 547.12 117H537.52L555.17 90.7L538.22 66H548.52C549.354 66 549.954 66.1333 550.32 66.4C550.72 66.6333 551.07 67 551.37 67.5L562.92 85.5C563.22 84.4 563.687 83.35 564.32 82.35L574.07 67.7C574.737 66.5667 575.587 66 576.62 66H586.47L569.52 90.25L587.17 117Z" fill="black"/>
<path d="M605.195 104.2C606.695 106.133 608.328 107.5 610.095 108.3C611.895 109.067 613.878 109.45 616.045 109.45C620.245 109.45 623.511 107.917 625.845 104.85C628.211 101.783 629.395 97.2167 629.395 91.15C629.395 88.0167 629.128 85.35 628.595 83.15C628.061 80.9167 627.295 79.1 626.295 77.7C625.295 76.3 624.078 75.2833 622.645 74.65C621.211 74.0167 619.595 73.7 617.795 73.7C615.061 73.7 612.695 74.3 610.695 75.5C608.728 76.6667 606.895 78.35 605.195 80.55V104.2ZM604.645 73.4C606.778 70.9 609.195 68.8833 611.895 67.35C614.628 65.8167 617.795 65.05 621.395 65.05C624.261 65.05 626.861 65.6333 629.195 66.8C631.528 67.9333 633.528 69.6 635.195 71.8C636.861 74 638.145 76.7333 639.045 80C639.978 83.2333 640.445 86.95 640.445 91.15C640.445 94.9167 639.928 98.4333 638.895 101.7C637.895 104.933 636.445 107.75 634.545 110.15C632.645 112.517 630.345 114.383 627.645 115.75C624.945 117.083 621.895 117.75 618.495 117.75C615.495 117.75 612.945 117.267 610.845 116.3C608.778 115.333 606.895 114 605.195 112.3V133.95H594.445V66H600.945C602.411 66 603.345 66.6833 603.745 68.05L604.645 73.4Z" fill="black"/>
<path d="M661.84 43V117H651.09V43H661.84Z" fill="black"/>
<path d="M697.159 65.2C700.925 65.2 704.325 65.8167 707.359 67.05C710.425 68.2833 713.025 70.0333 715.159 72.3C717.325 74.5667 718.992 77.3167 720.159 80.55C721.325 83.7833 721.909 87.4167 721.909 91.45C721.909 95.4833 721.325 99.1167 720.159 102.35C718.992 105.583 717.325 108.35 715.159 110.65C713.025 112.917 710.425 114.667 707.359 115.9C704.325 117.133 700.925 117.75 697.159 117.75C693.359 117.75 689.925 117.133 686.859 115.9C683.825 114.667 681.225 112.917 679.059 110.65C676.892 108.35 675.225 105.583 674.059 102.35C672.892 99.1167 672.309 95.4833 672.309 91.45C672.309 87.4167 672.892 83.7833 674.059 80.55C675.225 77.3167 676.892 74.5667 679.059 72.3C681.225 70.0333 683.825 68.2833 686.859 67.05C689.925 65.8167 693.359 65.2 697.159 65.2ZM697.159 109.35C701.759 109.35 705.175 107.817 707.409 104.75C709.675 101.65 710.809 97.2333 710.809 91.5C710.809 85.7667 709.675 81.35 707.409 78.25C705.175 75.1167 701.759 73.55 697.159 73.55C692.492 73.55 689.025 75.1167 686.759 78.25C684.492 81.35 683.359 85.7667 683.359 91.5C683.359 97.2333 684.492 101.65 686.759 104.75C689.025 107.817 692.492 109.35 697.159 109.35Z" fill="black"/>
<path d="M742.388 75.45C743.988 72.2167 745.921 69.6833 748.188 67.85C750.454 65.9833 753.171 65.05 756.338 65.05C757.438 65.05 758.471 65.1833 759.438 65.45C760.404 65.6833 761.271 66.05 762.037 66.55L761.287 74.65C761.154 75.2167 760.938 75.6167 760.638 75.85C760.371 76.05 760.004 76.15 759.537 76.15C759.037 76.15 758.321 76.0667 757.388 75.9C756.454 75.7 755.471 75.6 754.438 75.6C752.937 75.6 751.604 75.8167 750.438 76.25C749.304 76.6833 748.271 77.3167 747.338 78.15C746.438 78.9833 745.637 80 744.938 81.2C744.238 82.4 743.587 83.7667 742.987 85.3V117H732.237V66H738.487C739.621 66 740.404 66.2167 740.838 66.65C741.271 67.05 741.571 67.7667 741.737 68.8L742.388 75.45Z" fill="black"/>
<path d="M800.844 85.75C800.844 83.95 800.577 82.2833 800.044 80.75C799.544 79.1833 798.794 77.8333 797.794 76.7C796.794 75.5333 795.544 74.6333 794.044 74C792.577 73.3333 790.877 73 788.944 73C785.044 73 781.977 74.1167 779.744 76.35C777.51 78.5833 776.094 81.7167 775.494 85.75H800.844ZM775.194 92.35C775.327 95.25 775.777 97.7667 776.544 99.9C777.31 102 778.327 103.75 779.594 105.15C780.894 106.55 782.427 107.6 784.194 108.3C785.994 108.967 787.994 109.3 790.194 109.3C792.294 109.3 794.11 109.067 795.644 108.6C797.177 108.1 798.51 107.567 799.644 107C800.777 106.4 801.744 105.867 802.544 105.4C803.344 104.9 804.077 104.65 804.744 104.65C805.61 104.65 806.277 104.983 806.744 105.65L809.794 109.6C808.527 111.1 807.094 112.367 805.494 113.4C803.894 114.433 802.194 115.283 800.394 115.95C798.594 116.583 796.744 117.033 794.844 117.3C792.944 117.6 791.094 117.75 789.294 117.75C785.76 117.75 782.477 117.167 779.444 116C776.444 114.8 773.827 113.05 771.594 110.75C769.394 108.45 767.66 105.6 766.394 102.2C765.16 98.8 764.544 94.8833 764.544 90.45C764.544 86.9167 765.094 83.6167 766.194 80.55C767.327 77.4833 768.927 74.8167 770.994 72.55C773.094 70.2833 775.627 68.5 778.594 67.2C781.594 65.8667 784.977 65.2 788.744 65.2C791.877 65.2 794.777 65.7167 797.444 66.75C800.11 67.75 802.41 69.2333 804.344 71.2C806.277 73.1667 807.777 75.5833 808.844 78.45C809.944 81.2833 810.494 84.5167 810.494 88.15C810.494 89.8167 810.31 90.9333 809.944 91.5C809.577 92.0667 808.91 92.35 807.944 92.35H775.194Z" fill="black"/>
<path d="M830.669 75.45C832.269 72.2167 834.202 69.6833 836.469 67.85C838.735 65.9833 841.452 65.05 844.619 65.05C845.719 65.05 846.752 65.1833 847.719 65.45C848.685 65.6833 849.552 66.05 850.319 66.55L849.569 74.65C849.435 75.2167 849.219 75.6167 848.919 75.85C848.652 76.05 848.285 76.15 847.819 76.15C847.319 76.15 846.602 76.0667 845.669 75.9C844.735 75.7 843.752 75.6 842.719 75.6C841.219 75.6 839.885 75.8167 838.719 76.25C837.585 76.6833 836.552 77.3167 835.619 78.15C834.719 78.9833 833.919 80 833.219 81.2C832.519 82.4 831.869 83.7667 831.269 85.3V117H820.519V66H826.769C827.902 66 828.685 66.2167 829.119 66.65C829.552 67.05 829.852 67.7667 830.019 68.8L830.669 75.45Z" fill="black"/>
</svg>
